<?xml version="1.0" encoding="utf-8"?>
<!-- Generator: Adobe Illustrator 27.6.1, SVG Export Plug-In . SVG Version: 6.00 Build 0)  -->
<svg version="1.1" id="GameBar" xmlns="http://www.w3.org/2000/svg" xmlns:xlink="http://www.w3.org/1999/xlink" x="0px" y="0px"
	 viewBox="0 0 900 120" style="enable-background:new 0 0 900 120;" xml:space="preserve">
<style type="text/css">
	.st0{fill:#36AAE1;}
	.st1{font-family:'OpenSans-Extrabold';}
	.st2{font-size:14px;}
	.st3{font-size:12px;}
	.st4{fill:#A472AF;}
	.st5{fill:#E94E1B;}
	.st6{font-family:'BebasNeue-Regular';}
	.st7{font-size:29px;}
	.st8{fill:#EC663B;}
	.st9{fill:#878787;}
	.st10{fill:#FFDE00;}
	.st11{fill:#E71D73;}
	.st12{fill:#009FE3;}
	.st13{fill:#00983A;}
	.st14{fill:#E30613;}
</style>
<g id="Section_x5F_1">
	<g id="Troops_x5F_1">
		<rect id="Box_x5F_1" x="12" y="28" class="st0" width="80" height="80"/>
		
			<text id="Number_x5F_1_00000097500269356407530680000016405699189484096912_" transform="matrix(1 0 0 1 43.797 95.948)" class="st1 st2">20</text>
		<text id="Name_x5F_1" transform="matrix(1 0 0 1 14.5674 71.8283)" class="st1 st3">CABALLERÍA</text>
	</g>
	<g id="Troops_x5F_2">
		<rect id="Box_x5F_2" x="126" y="28" class="st4" width="80" height="80"/>
		<text id="Number_x5F_2" transform="matrix(1 0 0 1 157.797 95.948)" class="st1 st2">20</text>
		<text id="Name_x5F_2" transform="matrix(1 0 0 1 128.5674 71.8283)" class="st1 st3">INFANTERÍA</text>
	</g>
	<g id="Troops_x5F_3">
		<rect id="Box_x5F_3" x="239" y="28" class="st5" width="80" height="80"/>
		<text id="Number_x5F_3" transform="matrix(1 0 0 1 270.797 95.948)" class="st1 st2">20</text>
		<text id="Name_x5F_3" transform="matrix(1 0 0 1 243.5674 71.8283)" class="st1 st3">ARTILLERÍA</text>
	</g>
	<text id="Name" transform="matrix(1 0 0 1 132.8241 24.5993)" class="st6 st7">TROPAS</text>
</g>
<g id="Section_x5F_2">
	<g id="Resource_x5F_1">
		
			<rect id="Box_x5F_1_00000026164008338772294240000008716766476991093138_" x="368.13" y="28" class="st8" width="80" height="80"/>
		
			<text id="Number_x5F_1_00000116951652989091497880000016245405681678988419_" transform="matrix(1 0 0 1 399.9263 95.9482)" class="st1 st2">20</text>
		
			<text id="Name_x5F_1_00000163751416850774722660000004852636615995904447_" transform="matrix(1 0 0 1 387.9286 71.8285)" class="st1 st3">COBRE</text>
	</g>
	<g id="Resource_x5F_2">
		
			<rect id="Box_x5F_2_00000111159928479334462080000009225661272020919472_" x="482.13" y="28" class="st9" width="80" height="80"/>
		
			<text id="Number_x5F_2_00000047748968343882322070000012136242762489227417_" transform="matrix(1 0 0 1 513.9263 95.9482)" class="st1 st2">20</text>
		
			<text id="Name_x5F_2_00000079458962223501940940000010510603381425528491_" transform="matrix(1 0 0 1 502.4594 71.8285)" class="st1 st3">PLATA</text>
	</g>
	<g id="Resource_x5F_3">
		
			<rect id="Box_x5F_3_00000129189845065611035940000000322793841225953949_" x="595.13" y="28" class="st10" width="80" height="80"/>
		
			<text id="Number_x5F_3_00000118369875217168792970000004319330636518037399_" transform="matrix(1 0 0 1 626.9263 95.9482)" class="st1 st2">20</text>
		
			<text id="Name_x5F_3_00000161613362300214454010000000846719994035248516_" transform="matrix(1 0 0 1 621.3774 71.8285)" class="st1 st3">ORO</text>
	</g>
	
		<text id="Name_00000106845684684094409030000006926199497116711092_" transform="matrix(1 0 0 1 477.0798 24.5995)" class="st6 st7">RECURSOS</text>
</g>
<g id="Section_x5F_3">
	<g id="Button_x5F_4">
		
			<rect id="Button_x5F_Action_00000026134647444531392780000011891334860716265652_" x="807.32" y="63.06" class="st11" width="80" height="50"/>
		
			<text id="Name_x5F_Action_00000068658926306016637710000016555445426961513148_" transform="matrix(1 0 0 1 820.0934 92.0559)" class="st1 st3">BOTÓN 4</text>
	</g>
	<g id="Button_x5F_3">
		
			<rect id="Button_x5F_Action_00000151531228026153233270000009322846498808565392_" x="807.32" y="6.83" class="st12" width="80" height="50"/>
		
			<text id="Name_x5F_Action_00000172409512976270000240000008243041127039177406_" transform="matrix(1 0 0 1 822.8615 36.0046)" class="st1 st3">BOTÓN 3</text>
	</g>
	<g id="Button_x5F_2">
		<rect id="Button_x5F_Action" x="715.52" y="63.17" class="st13" width="80" height="50"/>
		<text id="Name_x5F_Action_00000155827573746239215870000014635456699922658445_" transform="matrix(1 0 0 1 730.5848 86.1683)"><tspan x="0" y="0" class="st1 st3">LANZAR</tspan><tspan x="3.53" y="14.4" class="st1 st3">DADOS</tspan></text>
	</g>
	<g id="Button_x5F_1">
		
			<rect id="Button_x5F_Action_00000003077676601416960780000001265606389080182409_" x="715.52" y="6.94" class="st14" width="80" height="50"/>
		<text id="Name_x5F_Action" transform="matrix(1 0 0 1 731.0589 36.1169)" class="st1 st3">ATACAR</text>
	</g>
</g>
</svg>
