<?xml version="1.0" encoding="iso-8859-1"?>
<!-- Uploaded to: SVG Repo, www.svgrepo.com, Generator: SVG Repo Mixer Tools -->
<!DOCTYPE svg PUBLIC "-//W3C//DTD SVG 1.1//EN" "http://www.w3.org/Graphics/SVG/1.1/DTD/svg11.dtd">
<svg fill="#000000" version="1.1" id="Capa_1" xmlns="http://www.w3.org/2000/svg" xmlns:xlink="http://www.w3.org/1999/xlink" 
	 width="800px" height="800px" viewBox="0 0 134.935 134.935"
	 xml:space="preserve">
	<g>
		<path d="M23.665,58.874c-0.203,0.294-0.312,0.432-0.401,0.584c-1.222,2.112-2.433,4.235-3.682,6.342
			c-0.16,0.269-0.493,0.437-0.736,0.66c-0.152,0.137-0.322,0.264-0.421,0.437c-2.107,3.615-4.182,7.241-6.32,10.836
			c-0.523,0.884-1.267,1.646-1.886,2.474c-0.457,0.619-0.878,1.274-1.335,1.939c-0.069-0.112-0.114-0.193-0.173-0.29
			c-0.188,0.274-0.358,0.519-0.53,0.772c-0.036-0.011-0.066-0.03-0.104-0.041c0.104-0.279,0.208-0.559,0.308-0.843
			c-0.056-0.046-0.12-0.092-0.178-0.137c-0.414,0.522-0.831,1.046-1.341,1.69c0.053-0.314,0.089-0.503,0.119-0.695
			c-0.348,0.396-0.64,0.695-1.236,0.411c-0.167-0.076-0.584,0.244-0.802,0.473c-0.29,0.299-0.498,0.553-0.909,0.157
			c-0.109-0.102-0.363-0.056-0.769-0.016c0-0.655-0.048-1.31,0.015-1.955c0.041-0.467-0.025-0.635-0.571-0.376
			c0.223-0.502,0.417-0.934,0.602-1.365c-0.041-0.025-0.083-0.046-0.125-0.071c-0.213,0.279-0.432,0.559-0.769,0.995
			c0.188-1.188,0.259-2.204,0.531-3.158c0.223-0.797,0.729-1.514,1.028-2.301c0.167-0.432,0.142-0.924,0.236-1.386
			c0.046-0.233,0.125-0.473,0.244-0.681c2.06-3.56,4.342-7.002,6.134-10.689c2.42-4.961,5.555-9.48,8.186-14.31
			c1.076-1.985,2.313-3.91,4.024-5.474c2.044-1.874,4.4-2.996,7.145-3.336c0.218-0.031,0.49-0.082,0.635-0.218
			c2.346-2.234,5.293-3.225,8.282-4.185c2.912-0.924,5.867-1.011,8.851-0.609c2.184,0.3,4.357,0.67,6.53,1.046
			c0.668,0.117,1.343,0.305,1.95,0.595c1.422,0.68,2.876,0.645,4.4,0.528c3.199-0.239,5.667-1.859,8.034-3.839
			c1.795-1.503,3.801-2.757,5.593-4.26c1.417-1.179,2.661-2.564,3.961-3.87c0.239-0.229,0.396-0.528,0.63-0.762
			c2.396-2.381,4.499-5.022,6.662-7.602c1.351-1.6,2.804-3.123,4.327-4.539c2.021-1.879,3.971-3.85,6.453-5.185
			c1.65-0.883,3.164-2.036,4.784-2.981c1.011-0.589,2.103-1.03,3.179-1.493c0.147-0.066,0.573-0.426,0.604,0.178
			c0.152-0.02,0.31-0.02,0.457-0.061c1.269-0.325,2.519-0.757,3.808-0.965c1.94-0.31,3.783,0.157,5.505,1.071
			c0.366,0.198,0.655,0.188,1.036,0.005c0.701-0.325,1.447-0.543,2.163-0.823c1.143-0.432,2.274-0.873,3.407-1.315
			c0.198-0.076,0.381-0.203,0.584-0.228c0.482-0.066,0.66,0.183,0.462,0.625c-0.056,0.127-0.147,0.244-0.224,0.36
			c-0.797,1.163-1.6,2.326-2.381,3.469c0.589,0.792,1.36,1.503,1.706,2.376c0.472,1.204,1.208,1.325,2.315,1.214
			c1.203-0.122,2.433-0.056,3.646-0.03c1.554,0.035,3.107,0.091,4.601-0.422c0.111-0.035,0.233-0.051,0.345-0.061
			c0.041-0.005,0.081,0.035,0.265,0.122c-0.193,0.264-0.33,0.548-0.544,0.742c-2.219,2.006-4.758,3.392-7.738,3.895
			c-0.158,0.025-0.33,0.041-0.488,0.041c-1.183,0-1.173,0-1.31,1.199c-0.157,1.33-0.351,2.655-0.493,3.986
			c-0.03,0.36-0.061,0.797,0.097,1.091c0.686,1.315,0.411,2.529-0.254,3.727c-0.229,0.412-0.33,0.899-0.878,1.107
			c-0.184,0.071-0.265,0.472-0.336,0.736c-0.609,2.341-1.192,4.682-1.792,7.028c-0.021,0.082-0.061,0.152-0.193,0.208
			c0.025-0.452,0.046-0.899,0.066-1.351c-0.021,0-0.041,0.005-0.071,0.005c-0.218,0.568-0.396,1.157-0.665,1.701
			c-0.168,0.345,0.046,0.954-0.619,1.041c-0.051,0.005-0.057,0.386-0.071,0.594c-0.021,0.254-0.025,0.498-0.147,0.746
			c0-0.406,0-0.817,0-1.224c-0.056-0.01-0.111-0.02-0.173-0.03c-0.314,1.406-0.695,2.793-0.919,4.215
			c-0.167,1.107-0.086,2.25-0.224,3.361c-0.056,0.482-0.294,0.985-0.573,1.392c-1.117,1.625-2.539,2.945-4.154,4.062
			c-0.386,0.269-0.889,0.492-1.351,0.523c-2.798,0.137-4.885-1.188-6.565-3.301c-0.635-0.792-0.849-1.742-0.396-2.646
			c1.071-2.152,0.823-4.229-0.065-6.357c-0.376-0.904-0.579-1.884-0.895-2.813c-0.121-0.371-0.324-0.706-0.619-1.021
			c0.086,0.468-1.671,2.92-1.849,3.006c-0.111,0.193-0.229,0.432-0.365,0.66c-0.183,0.285-0.457,0.539-0.533,0.843
			c-0.29,1.183-0.563,2.376-0.747,3.58c-0.146,0.939-0.132,1.898-0.233,2.849c-0.086,0.848-0.279,1.686-0.33,2.534
			c-0.025,0.417,0.106,0.878,0.279,1.27c1.554,3.367,3.413,6.596,4.002,10.338c0.437,2.798,0.365,5.459-1.3,7.912
			c-0.823,1.208-0.381,2.788,0.853,3.499c2.417,1.381,4.134,3.438,5.667,5.698c0.919,1.36,1.818,2.736,2.793,4.062
			c0.965,1.295,2.143,2.351,3.646,3.031c2.346,1.051,4.026,3.94,3.29,6.932c-1.025,4.209-1.051,8.516-0.884,12.821
			c0.031,0.828,0.305,1.655,0.579,2.453c0.604,1.792,0.849,3.585,0.366,5.459c-0.219,0.853-0.173,1.767-0.26,2.66
			c-0.116,1.188-0.197,2.387-0.37,3.565c-0.239,1.63-1.168,2.939-2.093,4.245c-0.543,0.756-1.01,1.584-1.427,2.422
			c-1.335,2.687-4.007,2.899-5.713,0.416c-0.965-1.411-1.33-3.041-1.604-4.691c-0.091-0.559-0.111-1.122-0.162-1.681
			c-0.117-1.301,0.111-2.469,1.168-3.372c0.259-0.219,0.365-0.6,0.599-0.849c0.193-0.208,0.457-0.406,0.727-0.482
			c0.427-0.121,0.878-0.137,1.32-0.192c0.808-0.102,1.437-0.473,1.757-1.229c0.086-0.197-0.051-0.69-0.188-0.73
			c-0.65-0.198-0.854-0.722-0.863-1.244c-0.031-1.427-0.041-2.854,0.07-4.275c0.33-4.124,0.559-8.237-0.203-12.35
			c-0.324-1.763-1.492-2.905-2.844-3.778c-6.072-3.926-12.329-7.465-19.55-8.901c-1.422-0.29-2.813-0.731-4.235-1.047
			c-0.446-0.102-0.924-0.076-1.396-0.04c-0.863,0.061-1.721,0.203-2.584,0.243c-0.823,0.041-1.422,0.371-1.635,1.179
			c-0.392,1.473-0.762,2.955-1.072,4.442c-0.863,4.139-1.65,8.293-1.868,12.527c-0.051,1.052,0.086,2.174,0.396,3.18
			c0.686,2.265,0.747,4.488,0.265,6.794c-0.614,2.971-0.457,5.987-0.041,8.978c0.279,1.971,0.747,3.91,1.082,5.87
			c0.122,0.691,0.111,1.407,0.111,2.107c0,1.336,0.503,2.442,1.376,3.438c0.65,0.73,1.478,1.462,1.747,2.351
			c0.675,2.199,1.976,4.078,2.813,6.18c0.299,0.762,0.167,1.153-0.595,1.447c-0.518,0.198-1.081,0.33-1.635,0.386
			c-2.072,0.193-4.134,0.152-6.124-0.559c-1.163-0.411-1.92-1.091-1.939-2.447c-0.011-0.736-0.3-1.457-0.355-2.188
			c-0.041-0.528,0.111-1.066,0.142-1.604c0.087-1.163,0.163-2.331,0.214-3.494c0.02-0.645-0.387-1.122-0.92-1.295
			c-1.053-0.335-1.241-1.152-1.294-2.031c-0.056-0.888-0.051-1.792,0.038-2.676c0.269-2.641,0.051-5.25-0.381-7.855
			c-0.114-0.695-0.307-1.396-0.279-2.092c0.104-2.61-1.036-4.997-1.274-7.536c-0.079-0.817-0.14-1.65-0.048-2.463
			c0.317-2.879,0.013-5.702-0.478-8.541c-0.665-3.905-1.211-7.835-1.81-11.756c-0.015-0.096-0.01-0.188-0.031-0.284
			c-0.188-0.726-0.165-1.67-0.629-2.107c-0.404-0.381-1.361-0.127-2.059-0.254c-1.633-0.294-3.26-0.645-4.888-0.979
			c-0.269-0.056-0.531-0.147-0.848-0.233c-0.198,1.314-0.343,2.595-0.582,3.854c-0.485,2.56-1.675,4.875-2.693,7.241
			c-0.343,0.798-0.77,1.564-1.062,2.377c-0.254,0.716-0.389,1.482-0.541,2.234c-0.145,0.736-0.175,1.498-0.378,2.209
			c-0.589,2.076-0.884,4.179-0.863,6.332c0.025,2.488,0.02,4.981,0.114,7.47c0.041,1.025,0.322,2.041,0.452,3.057
			c0.053,0.411,0.094,0.868-0.025,1.254c-0.337,1.098,0.061,1.98,0.666,2.829c0.353,0.497,0.81,0.929,1.107,1.457
			c1.041,1.854,2.023,3.737,3.031,5.611c0.213,0.401,0.104,0.721-0.307,0.843c-0.622,0.173-1.267,0.33-1.917,0.381
			c-1.78,0.147-3.511-0.092-5.205-0.67c-0.662-0.224-1.051-0.63-1.18-1.336c-0.167-0.919-0.256-1.771,0.155-2.706
			c0.681-1.554,0.244-3.052-0.65-4.413c-0.5-0.757-0.597-1.523-0.526-2.407c0.12-1.401,0.188-2.818,0.178-4.22
			c-0.025-2.584-0.053-5.174-0.229-7.749c-0.162-2.407-0.505-4.804-0.784-7.205c-0.163-1.407-0.208-2.747,0.343-4.134
			c1.389-3.494,1.564-7.145,0.949-10.816c-0.299-1.797-1.305-3.331-2.511-4.666c-1.227-1.356-2.567-2.61-3.867-3.916
			c-3.625,2.335-6.99,4.784-9.034,8.791c-1.231,2.422-3.077,4.534-4.679,6.764c-0.566,0.781-1.071,1.533-1.201,2.559
			c-0.119,0.96-0.447,1.93-0.843,2.818c-0.79,1.777-1.062,3.636-1.155,5.546c-0.066,1.411-0.16,2.817-0.15,4.225
			c0.005,0.975,0.198,1.955,0.244,2.93c0.043,0.858,0.089,1.731-0.035,2.58c-0.297,2.016-0.625,4.036-1.066,6.022
			c-0.302,1.335-0.729,2.666-1.28,3.925c-0.531,1.209-1.98,1.813-3.26,1.59c-1.366-0.239-2.323-1.249-2.546-2.742
			c-0.302-2.001,0.076-3.834,1.409-5.408c0.119-0.147,0.264-0.289,0.333-0.452c0.254-0.63,0.739-0.776,1.361-0.751
			c0.863,0.035,1.201-0.371,0.729-1.071c-0.874-1.275-0.592-2.58-0.462-3.931c0.307-3.128,0.566-6.267,0.853-9.395
			c0.104-1.143,0.244-2.29,0.363-3.433c0.03-0.3,0.048-0.609,0.048-0.914c0.005-1.757-0.043-3.514,0.03-5.276
			c0.021-0.513,0.254-1.127,0.597-1.503c0.797-0.863,1.27-1.812,1.473-2.965c0.203-1.179,0.482-2.342,0.82-3.489
			c0.505-1.722,0.848-3.438,0.818-5.261c-0.046-3.031,0.053-6.063,0.089-9.095C23.665,59.316,23.665,59.184,23.665,58.874z"/>
	</g>
</svg>